<?xml version="1.0" encoding="utf-8"?>

<!DOCTYPE svg PUBLIC "-//W3C//DTD SVG 1.1//EN" "http://www.w3.org/Graphics/SVG/1.1/DTD/svg11.dtd">
<!-- Uploaded to: SVG Repo, www.svgrepo.com, Generator: SVG Repo Mixer Tools -->
<svg version="1.1" id="_x32_" xmlns="http://www.w3.org/2000/svg" xmlns:xlink="http://www.w3.org/1999/xlink" 
	 viewBox="0 0 512 512"  xml:space="preserve">
<style type="text/css">
	.st0{fill:#000000;}
</style>
<g>
	<rect x="207.858" y="180.876" class="st0" width="19.688" height="19.672"/>
	<rect x="250.536" y="180.876" class="st0" width="19.687" height="19.672"/>
	<rect x="293.214" y="180.876" class="st0" width="19.687" height="19.672"/>
	<rect x="207.858" y="222.515" class="st0" width="19.688" height="19.687"/>
	<rect x="250.536" y="222.515" class="st0" width="19.687" height="19.687"/>
	<rect x="293.214" y="222.515" class="st0" width="19.687" height="19.687"/>
	<rect x="207.858" y="264.177" class="st0" width="19.688" height="19.672"/>
	<rect x="250.536" y="264.177" class="st0" width="19.687" height="19.672"/>
	<rect x="293.214" y="264.177" class="st0" width="19.687" height="19.672"/>
	<rect x="207.858" y="305.815" class="st0" width="19.688" height="19.687"/>
	<rect x="250.536" y="305.815" class="st0" width="19.687" height="19.687"/>
	<rect x="293.214" y="305.815" class="st0" width="19.687" height="19.687"/>
	<rect x="207.858" y="347.469" class="st0" width="19.688" height="19.68"/>
	<rect x="71.125" y="242.21" class="st0" width="19.672" height="19.68"/>
	<rect x="71.125" y="283.864" class="st0" width="19.672" height="19.68"/>
	<rect x="71.125" y="325.518" class="st0" width="19.672" height="19.679"/>
	<rect x="71.125" y="367.165" class="st0" width="19.672" height="19.68"/>
	<rect x="71.125" y="408.811" class="st0" width="19.672" height="19.68"/>
	<rect x="120.365" y="242.21" class="st0" width="19.672" height="19.68"/>
	<rect x="120.365" y="283.864" class="st0" width="19.672" height="19.68"/>
	<rect x="120.365" y="325.518" class="st0" width="19.672" height="19.679"/>
	<rect x="120.365" y="367.165" class="st0" width="19.672" height="19.68"/>
	<rect x="120.365" y="408.811" class="st0" width="19.672" height="19.68"/>
	<rect x="250.536" y="347.469" class="st0" width="19.687" height="19.68"/>
	<rect x="293.214" y="347.469" class="st0" width="19.687" height="19.68"/>
	<rect x="207.858" y="389.123" class="st0" width="19.688" height="19.68"/>
	<rect x="250.536" y="389.123" class="st0" width="19.687" height="19.68"/>
	<rect x="293.214" y="389.123" class="st0" width="19.687" height="19.68"/>
	<rect x="374.16" y="301.406" class="st0" width="65.639" height="11.45"/>
	<rect x="374.16" y="334.943" class="st0" width="65.639" height="11.443"/>
	<rect x="374.16" y="368.457" class="st0" width="65.639" height="11.451"/>
	<rect x="374.16" y="401.979" class="st0" width="65.639" height="11.451"/>
	<path class="st0" d="M485.75,475.54V252.367H358.838V134.2h-43.291V95.887h-13.124V62.716h-34.471V10.202h-15.307v52.514h-34.307
		v33.171h-13.125V134.2h-43.291v61.737H26.264V475.54H0v26.258h32.827h135.657h13.124h157.542h13.124h126.913H512V475.54H485.75z
		 M168.484,482.103h-50.735v-35.002H96.687v35.002H45.952V215.631h122.533V482.103z M238.024,82.411h44.696v18.162h-44.696V82.411z
		 M224.914,115.574h70.945v25.196h-70.945V115.574z M339.151,258.93v223.172h-62.365v-48.126h-32.812v48.126h-62.365V202.507
		v-48.613h30.166h97.21h30.166V258.93z M466.048,482.103h-46.356v-35.002h-21.062v35.002h-46.356V272.055h113.773V482.103z"/>
</g>
</svg>