<?xml version="1.0" encoding="iso-8859-1"?>
<!-- Uploaded to: SVG Repo, www.svgrepo.com, Generator: SVG Repo Mixer Tools -->
<!DOCTYPE svg PUBLIC "-//W3C//DTD SVG 1.1//EN" "http://www.w3.org/Graphics/SVG/1.1/DTD/svg11.dtd">
<svg fill="#000000" version="1.1" id="Capa_1" xmlns="http://www.w3.org/2000/svg" xmlns:xlink="http://www.w3.org/1999/xlink" 
	 width="800px" height="800px" viewBox="0 0 83.5 83.5" xml:space="preserve">
<g>
	<g>
		<path d="M22.5,83.5H61c1.654,0,3-1.346,3-3V3c0-1.654-1.346-3-3-3H22.5c-1.653,0-3,1.346-3,3v77.5
			C19.5,82.154,20.847,83.5,22.5,83.5z M21.5,3c0-0.552,0.449-1,1-1H61c0.553,0,1,0.448,1,1v77.5c0,0.552-0.447,1-1,1H22.5
			c-0.551,0-1-0.448-1-1V3z"/>
		<path d="M27.017,67.296h29.467c1.802,0,3.267-1.301,3.267-2.899V12.149c0-1.599-1.465-2.899-3.267-2.899H27.017
			c-1.801,0-3.268,1.301-3.268,2.899v52.246C23.75,65.995,25.216,67.296,27.017,67.296z M25.75,12.149
			c0-0.487,0.58-0.899,1.268-0.899h29.466c0.688,0,1.269,0.412,1.269,0.899v52.246c0,0.488-0.58,0.9-1.269,0.9H27.017
			c-0.688,0-1.268-0.412-1.268-0.9L25.75,12.149L25.75,12.149z"/>
		<path d="M41.75,69.666c-2.94,0-5.334,2.393-5.334,5.334s2.394,5.334,5.334,5.334c2.939,0,5.334-2.393,5.334-5.334
			S44.691,69.666,41.75,69.666z M41.75,78.334c-1.838,0-3.334-1.496-3.334-3.334s1.496-3.334,3.334-3.334
			c1.836,0,3.334,1.496,3.334,3.334S43.588,78.334,41.75,78.334z"/>
		<path d="M35.896,5.5h11.708c0.555,0,1-0.447,1-1s-0.445-1-1-1H35.896c-0.552,0-1,0.447-1,1S35.344,5.5,35.896,5.5z"/>
	</g>
</g>
</svg>